<?xml version="1.0" standalone="no"?><!DOCTYPE svg PUBLIC "-//W3C//DTD SVG 1.1//EN" "http://www.w3.org/Graphics/SVG/1.1/DTD/svg11.dtd"><svg t="1582439536854" class="icon" viewBox="0 0 1024 1024" version="1.1" xmlns="http://www.w3.org/2000/svg" p-id="1158" xmlns:xlink="http://www.w3.org/1999/xlink" width="200" height="200"><defs><style type="text/css"></style></defs><path d="M594.09280243 592.80203561l332.97494726 0.04302544c45.60711222 0 82.22187933-36.78686892 82.22187934-82.13582842a81.96138834 81.96138834 0 0 0-82.26490478-82.09280298l-332.97494672 0.04302599L594.13582842 95.64148292A82.02223552 82.02223552 0 0 0 512 13.41960359c-45.60711222 0-82.09280243 36.82989492-82.09280299 82.26490478l1e-8 333.01797272-332.97494726-0.04302545a82.02223552 82.02223552 0 0 0-82.26490425 82.09280243c0 45.60711222 36.82989492 82.09280243 82.2649048 82.09280298l333.01797271 0-0.04302544 332.97494727c0 45.60711222 36.74384347 82.17885387 82.13582787 82.22187879 45.60711222 0 82.09280243-36.82989492 82.09280298-82.2649048l-0.043026-332.9749467z" p-id="1159"></path></svg>