<?xml version="1.0" standalone="no"?><!DOCTYPE svg PUBLIC "-//W3C//DTD SVG 1.1//EN" "http://www.w3.org/Graphics/SVG/1.1/DTD/svg11.dtd"><svg t="1582962010049" class="icon" viewBox="0 0 1024 1024" version="1.1" xmlns="http://www.w3.org/2000/svg" p-id="5404" xmlns:xlink="http://www.w3.org/1999/xlink" width="200" height="200"><defs><style type="text/css"></style></defs><path d="M596.46 511.34c0-46.62-37.8-84.42-84.42-84.42-46.62 0-84.42 37.8-84.42 84.42 0 46.62 37.8 84.42 84.42 84.42 22.39 0 43.86-8.9 59.69-24.73a84.418 84.418 0 0 0 24.73-59.69z m48.24 0C644.7 584.6 585.3 644 512.04 644c-73.26 0-132.65-59.39-132.65-132.66s59.39-132.66 132.65-132.66S644.7 438.07 644.7 511.34z m286.17-102.63l30.63 37.38-98.77 80.68-3.86-45.71C846.19 330.79 738.3 205.72 591.51 171.14l10.98-46.91c151.43 35.65 268.08 156.49 298.35 309.09l30.03-24.61zM588.86 900.14l24.12 30.03-37.39 30.63-80.68-98.77 45.71-3.86c154.58-13.04 281.91-126.71 312.35-278.82l47.27 9.41c-31.39 157.16-154.23 280-311.38 311.38zM123.23 588.16L93.2 612.28l-30.63-37.39 98.77-80.68 3.86 45.71c12.53 150.98 121.2 276.56 268.81 310.66l-10.73 46.67c-152.12-35.01-269.57-156-300.05-309.09z m310.78-465.62l-24.12-30.03 37.39-30.63 80.68 98.77-45.71 3.86C331.54 177.03 206.1 285.32 171.71 432.59l-47.03-10.97c35.44-151.79 156.44-268.78 309.33-299.08z m0 0" p-id="5405"></path></svg>