<?xml version="1.0" standalone="no"?><!DOCTYPE svg PUBLIC "-//W3C//DTD SVG 1.1//EN" "http://www.w3.org/Graphics/SVG/1.1/DTD/svg11.dtd"><svg t="1582961839578" class="icon" viewBox="0 0 1024 1024" version="1.1" xmlns="http://www.w3.org/2000/svg" p-id="2266" xmlns:xlink="http://www.w3.org/1999/xlink" width="200" height="200"><defs><style type="text/css"></style></defs><path d="M1013.184 410.368c-5.504-29.76-22.976-48.832-44.352-48.384l-4.48 0c-73.344 0-133.12-60.672-133.12-135.296 0-24.64 11.52-51.584 11.648-51.84 11.328-25.92 2.624-57.728-20.288-73.984l-1.344-0.96-128-72.256-1.344-0.64c-7.488-3.328-15.872-5.056-24.704-5.056-18.24 0-36.096 7.424-47.808 19.84C603.712 58.176 554.368 100.736 514.624 100.736c-40.192 0-89.728-43.456-105.408-60.096C397.44 27.968 379.456 20.48 361.024 20.48c-8.704 0-16.832 1.6-24.256 4.864L335.296 25.92 202.752 99.904 201.472 100.864C178.496 117.12 169.728 148.928 181.056 174.784c0.128 0.32 11.648 27.264 11.648 51.904 0 74.624-59.712 135.296-133.184 135.296L55.104 361.984C33.664 361.472 16.192 380.608 10.688 410.368 10.24 412.736-0.064 468.48-0.064 512.384c0 43.968 10.304 99.584 10.688 101.952 5.44 29.376 22.592 48.384 43.648 48.384 0.256 0 0.512 0 0.832 0L59.52 662.72c73.408 0 133.184 60.736 133.184 135.36 0 24.64-11.52 51.648-11.584 51.776-11.328 25.984-2.624 57.728 20.224 74.112l1.28 0.896 125.568 71.36 1.344 0.64c7.616 3.392 15.872 4.992 24.64 4.992 18.432 0 36.416-7.616 48.128-20.48 14.656-16.384 65.92-62.72 107.008-62.72 41.344 0 91.84 46.144 107.776 63.872 11.712 13.12 29.824 20.992 48.448 20.992l0 0c8.64 0 16.768-1.6 24.192-4.864l1.344-0.64 130.176-73.152 1.28-1.024c22.912-16.256 31.68-48 20.352-73.856-0.128-0.256-11.648-27.264-11.648-51.904 0-74.624 59.776-135.36 133.12-135.36l4.48 0c21.376 0.512 38.848-18.624 44.352-48.384 0.512-2.368 10.752-57.984 10.752-101.952C1023.936 468.48 1013.696 412.736 1013.184 410.368zM511.936 684.352C418.432 684.352 342.4 606.976 342.4 512c0-95.04 76.032-172.352 169.536-172.352S681.472 416.896 681.472 512C681.472 606.976 605.44 684.352 511.936 684.352z" p-id="2267"></path></svg>