<?xml version="1.0" standalone="no"?><!DOCTYPE svg PUBLIC "-//W3C//DTD SVG 1.1//EN" "http://www.w3.org/Graphics/SVG/1.1/DTD/svg11.dtd"><svg t="1582962038796" class="icon" viewBox="0 0 1024 1024" version="1.1" xmlns="http://www.w3.org/2000/svg" p-id="6199" xmlns:xlink="http://www.w3.org/1999/xlink" width="200" height="200"><defs><style type="text/css"></style></defs><path d="M877.866667 867.456l-359.338667 154.794667-363.52-144.554667-154.794667-359.338667 144.597334-363.52L504.149333 0.042667l363.52 144.554666 154.794667 359.381334-144.597333 363.52z m-18.773334-378.666667c-5.12 0-64.725333 1.706667-131.626666 4.693334a216.746667 216.746667 0 0 0-51.754667-123.562667c32.512-29.610667 64.682667-59.562667 96.554667-89.813333a21.674667 21.674667 0 1 0-30.72-30.72l-89.6 96.64a216.746667 216.746667 0 0 0-123.904-51.114667c2.901333-66.901333 4.693333-126.506667 4.693333-131.626667a21.802667 21.802667 0 0 0-43.605333 0c0 5.12 1.792 64.725333 4.565333 131.626667a216.149333 216.149333 0 0 0-123.861333 51.456 7552.938667 7552.938667 0 0 0-89.557334-96.170667 21.674667 21.674667 0 1 0-30.72 30.72c3.712 3.498667 46.933333 44.373333 96.298667 89.301334a216.192 216.192 0 0 0-51.456 124.16 6670.848 6670.848 0 0 0-130.944-4.650667 21.802667 21.802667 0 1 0 0 43.605333c5.12 0 64.341333-1.749333 130.986667-4.650666a217.173333 217.173333 0 0 0 51.413333 124.16c-32.213333 29.44-64.170667 59.178667-95.786667 89.258666a21.589333 21.589333 0 0 0 0 30.677334 21.589333 21.589333 0 0 0 30.677334 0c3.626667-3.626667 44.16-46.762667 89.173333-95.914667a216.533333 216.533333 0 0 0 124.458667 51.114667 6691.84 6691.84 0 0 0-4.693334 130.901333 21.802667 21.802667 0 1 0 43.648 0c0-5.077333-1.706667-64.384-4.650666-130.986667a216.32 216.32 0 0 0 123.946666-51.925333c29.568 32.298667 59.392 64.341333 89.557334 96.128a21.674667 21.674667 0 1 0 30.72-30.677333c-3.626667-3.584-46.933333-44.544-96.256-89.6a216.106667 216.106667 0 0 0 50.858666-124.16 7005.866667 7005.866667 0 0 0 131.541334 4.693333 21.802667 21.802667 0 0 0 0-43.562667zM562.773333 550.826667c7.210667-9.344 11.733333-20.48 13.098667-32.213334 31.018667 2.986667 75.093333 5.504 119.338667 7.68a184.32 184.32 0 0 1-42.453334 103.68 3022.08 3022.08 0 0 0-90.026666-79.146666z m-0.597333-80.128c30.464-25.6 60.373333-51.84 89.685333-78.72 24.746667 29.056 39.893333 65.152 43.264 103.210666-39.808 1.706667-79.616 4.266667-119.338666 7.68a65.536 65.536 0 0 0-13.610667-32.170666z m-43.477333-24.064c2.986667-30.933333 5.546667-75.008 7.68-119.210667 38.101333 3.114667 74.24 18.048 103.466666 42.666667a3085.184 3085.184 0 0 0-78.933333 89.6 63.274667 63.274667 0 0 0-32.213333-13.056z m36.608 29.781333l11.648 27.306667c0.597333 4.608 0.64 9.258667 0.042666 13.994666l-11.178666 27.477334-9.770667 10.026666-27.264 11.562667a55.381333 55.381333 0 0 1-14.037333 0.085333l-27.477334-11.221333-9.941333-9.728-11.562667-27.306667a55.082667 55.082667 0 0 1-0.085333-13.994666l11.136-27.52 9.728-9.898667 27.306667-11.605333c4.650667-0.597333 9.301333-0.64 13.994666-0.042667l27.52 11.093333 9.941334 9.770667zM391.893333 370.346667a183.978667 183.978667 0 0 1 103.466667-42.922667c2.133333 44.245333 4.693333 88.362667 7.68 119.253333a64.938667 64.938667 0 0 0-32.085333 13.610667A2978.218667 2978.218667 0 0 0 391.893333 370.346667z m54.869334 133.418666a2899.626667 2899.626667 0 0 0-119.808-7.722666 183.978667 183.978667 0 0 1 42.922666-103.68c29.482667 26.965333 59.477333 53.333333 90.026667 79.146666-7.253333 9.386667-11.776 20.48-13.141333 32.256z m13.781333 47.786667a3001.258667 3001.258667 0 0 0-90.325333 79.36 183.466667 183.466667 0 0 1-43.264-103.722667c40.021333-1.749333 79.957333-4.309333 119.893333-7.722666 1.493333 11.434667 6.016 22.442667 13.653333 32.042666z m43.477333 24.064c-2.986667 31.146667-5.589333 75.605333-7.765333 119.978667a184.32 184.32 0 0 1-103.978667-42.666667c29.866667-32.981333 59.434667-66.304 79.488-90.368 9.6 7.424 20.693333 11.776 32.256 13.056z m126.805334 76.458667a183.808 183.808 0 0 1-103.466667 43.52 2900.053333 2900.053333 0 0 0-7.68-119.978667c11.392-1.493333 22.4-6.016 32-13.610667 25.770667 30.549333 52.181333 60.586667 79.146667 90.026667z" fill="#5B8DFF" p-id="6200"></path><path d="M0 0h1024v1024H0z" fill="#D8D8D8" fill-opacity="0" p-id="6201"></path></svg>