<?xml version="1.0" standalone="no"?><!DOCTYPE svg PUBLIC "-//W3C//DTD SVG 1.1//EN" "http://www.w3.org/Graphics/SVG/1.1/DTD/svg11.dtd"><svg t="1582362429564" class="icon" viewBox="0 0 1024 1024" version="1.1" xmlns="http://www.w3.org/2000/svg" p-id="2074" xmlns:xlink="http://www.w3.org/1999/xlink" width="200" height="200"><defs><style type="text/css"></style></defs><path d="M602.7 511.9l271.7-271.7c24.9-24.9 24.9-65.5 0-90.4-24.9-24.9-65.5-24.9-90.4 0L512.3 421.5 240.6 149.8c-24.9-24.9-65.5-24.9-90.4 0-24.9 24.9-24.9 65.5 0 90.4l271.7 271.7-271.7 271.7c-24.9 24.9-24.9 65.5 0 90.4 24.9 24.9 65.5 24.9 90.4 0l271.7-271.7L784.1 874c24.9 24.9 65.5 24.9 90.4 0 24.9-24.9 24.9-65.5 0-90.4L602.7 511.9z" p-id="2075"></path></svg>