<?xml version="1.0" standalone="no"?><!DOCTYPE svg PUBLIC "-//W3C//DTD SVG 1.1//EN" "http://www.w3.org/Graphics/SVG/1.1/DTD/svg11.dtd"><svg t="1582957475516" class="icon" viewBox="0 0 1024 1024" version="1.1" xmlns="http://www.w3.org/2000/svg" p-id="2269" xmlns:xlink="http://www.w3.org/1999/xlink" width="200" height="200"><defs><style type="text/css"></style></defs><path d="M998.083129 1023.471746a25.900698 25.900698 0 0 0 25.916952-25.916952V239.461587c0-7.590603-3.372698-14.750476-9.061587-19.594158L764.838684 6.005841a4.404825 4.404825 0 0 0-1.259682-0.845206c-0.633905-0.422603-1.056508-0.845206-1.690413-1.259683-0.845206-0.422603-1.470984-0.845206-2.31619-1.267809-0.633905-0.211302-1.26781-0.633905-1.893588-0.845206-0.845206-0.414476-1.901714-0.625778-2.738793-0.83708a6.152127 6.152127 0 0 0-1.901715-0.422603c-1.682286-0.211302-3.161397-0.422603-4.843682-0.422603H25.917034A25.900698 25.900698 0 0 0 0.000081 26.022603v971.954794a25.900698 25.900698 0 0 0 25.916953 25.916952H998.075002v-0.422603z m-187.944635-51.622603h-596.276825v-387.900953c0-7.793778 6.322794-13.897143 13.897142-13.897142h568.48254c7.785651 0 13.897143 6.314667 13.897143 13.897142v387.900953zM340.910811 51.525079h381.155556v269.271365a2.876952 2.876952 0 0 1-2.950095 2.950096H344.072208a3.006984 3.006984 0 0 1-2.950095-2.950096V51.525079h-0.211302z m-51.411301 0v269.271365a54.580825 54.580825 0 0 0 54.572698 54.572699h375.044064a54.580825 54.580825 0 0 0 54.572698-54.572699V81.643683l198.477207 169.829587v720.375873h-110.40508v-387.900953c0-36.238222-29.500952-65.519746-65.527873-65.519746H227.766938c-36.246349 0-65.527873 29.500952-65.527873 65.527873v388.104127H51.833986V51.525079h237.665524z m352.077206 765.472508a25.900698 25.900698 0 0 1 25.92508 25.916953 25.900698 25.900698 0 0 1-25.92508 25.916952H382.423446a25.900698 25.900698 0 0 1-25.925079-25.925079 25.900698 25.900698 0 0 1 25.925079-25.908826z m0-136.744635a25.900698 25.900698 0 0 1 25.92508 25.916953 25.900698 25.900698 0 0 1-25.92508 25.916952H382.423446a25.900698 25.900698 0 0 1-25.925079-25.925079 25.900698 25.900698 0 0 1 25.925079-25.908826zM618.406684 111.989841a25.900698 25.900698 0 0 1 25.908826 25.916953v94.386793a25.900698 25.900698 0 0 1-25.908826 25.92508 25.900698 25.900698 0 0 1-25.925079-25.92508v-68.68927H479.142684c-14.116571 0-25.925079-11.377778-25.925079-25.697523a25.900698 25.900698 0 0 1 25.925079-25.92508z" p-id="2270"></path></svg>