<?xml version="1.0" standalone="no"?><!DOCTYPE svg PUBLIC "-//W3C//DTD SVG 1.1//EN" "http://www.w3.org/Graphics/SVG/1.1/DTD/svg11.dtd"><svg t="1582961966272" class="icon" viewBox="0 0 1111 1024" version="1.1" xmlns="http://www.w3.org/2000/svg" p-id="4650" xmlns:xlink="http://www.w3.org/1999/xlink" width="216.9921875" height="200"><defs><style type="text/css"></style></defs><path d="M1096.28425324 39.30762404a50.3292725 50.3292725 0 0 1 2.0347434 32.80105622l-0.63738994 3.6037034c-1.32380966 8.21252064-52.60916624 273.12149369-97.86383648 506.82288624a211104.43068129 211104.43068129 0 0 0-55.13421038 285.13383836 67.83297473 67.83297473 0 0 1-30.59470621 46.03914939 59.76754331 59.76754331 0 0 1-49.02997856 6.32486816c-27.53033332-8.33509584-303.98586599-96.19681696-306.7805745-97.0793573l-8.53121646-2.72116474 0.53933049-1.39735343a32.58041987 32.58041987 0 0 1 17.57724769-59.79205902 31.86948612 31.86948612 0 0 1 12.91939905 2.72116308c26.28006909 8.28606608 291.7283709 91.98023931 299.35253302 94.45625367a4.90299734 4.90299734 0 0 0 1.27477824 0.26966442 6.17777728 6.17777728 0 0 0 0.75996514-2.1818326l136.25430971-704.63433395a1975852.42769962 1975852.42769962 0 0 1-494.85957127 583.77543597 58.83597325 58.83597325 0 0 0-10.93368541 35.30158464c0.46578503 12.42909997 0.19612063 137.03878889 0 196.92890904v27.28518295a31.86948612 31.86948612 0 1 1-63.54285164 0.36772387c0-2.01022937-0.22063467-199.23331684 0-228.67581835a119.87829648 119.87829648 0 0 1 32.28624144-81.41427944c16.25343807-19.09717631 357.67369152-421.53523897 460.73470542-543.17861444L119.11678584 585.99188239l262.11426282 85.41022245a32.53139013 32.53139013 0 1 1-20.00423066 61.28747361L49.00391567 630.04531814a37.87565849 37.87565849 0 0 1-26.96648711-33.19329577 51.28535659 51.28535659 0 0 1 29.41798746-48.53967782c32.94814542-18.06754677 957.82514073-505.94034591 981.18792444-518.27138641a69.40193477 69.40193477 0 0 1 10.29629544-5.41781211l3.03985889-1.25026424 3.23597951-0.98059978a39.81234238 39.81234238 0 0 1 29.4179858 0.8580246 39.22398215 39.22398215 0 0 1 17.65079314 16.05731743z" p-id="4651"></path></svg>